<?xml version="1.0" encoding="UTF-8"?> <svg xmlns="http://www.w3.org/2000/svg" id="Calque_1" data-name="Calque 1" viewBox="0 0 624.76 153.66"><defs><style>.cls-1{fill:#0064a6;}.cls-2{fill: #474646}</style></defs><path class="cls-1" d="M414,421.18c-15.64,0-29.22-6.18-29.22-21.43,0-14.89,12-20.28,27.79-23,19.38-3.29,33.74-10.27,44.22-20.45,1.64,38.86-9.47,64.84-42.79,64.84M401,311.05c15.63,0,29.21,6.17,29.21,21.43,0,14.89-12,20.27-27.79,23-19.38,3.28-33.74,10.27-44.21,20.45-1.65-38.86,9.46-64.84,42.79-64.84m81.19,45.48V288.88H394.89c-17.93,0-32.49,6.56-43.28,17.82-13.95,14.55-20,36.79-18.7,68v67.86h87.21c17.93,0,32.49-6.77,43.28-18,14-14.56,20.1-36.8,18.78-68" transform="translate(-332.73 -288.88)"></path><path class="cls-2" d="M556.63,329.86c7,0,11.14-4.2,11.14-9.68V320c0-6.3-4.38-9.68-11.41-9.68H545.48v19.55Zm-25.21-32.24h26.12c15.26,0,24.48,9,24.48,22.1v.18c0,14.8-11.51,22.47-25.85,22.47H545.48v19.18H531.42Z" transform="translate(-332.73 -288.88)"></path><polygon class="cls-2" points="256.04 8.74 304.27 8.74 304.27 21.25 270.02 21.25 270.02 34.22 300.16 34.22 300.16 46.74 270.02 46.74 270.02 60.16 304.73 60.16 304.73 72.68 256.04 72.68 256.04 8.74"></polygon><path class="cls-2" d="M678.29,328.67c6.85,0,10.78-3.65,10.78-9v-.18c0-6-4.21-9.14-11.06-9.14H664v18.36ZM650,297.62H679.2c8.13,0,14.43,2.28,18.63,6.48,3.57,3.56,5.48,8.59,5.48,14.62v.18c0,10.32-5.57,16.81-13.7,19.82l15.62,22.83H688.79l-13.7-20.46H664v20.46H650Z" transform="translate(-332.73 -288.88)"></path><path class="cls-2" d="M546.22,408.53l-8.5-20.73-8.49,20.73Zm-14.8-37.63h13l27.4,64.4h-14.7L551.24,421h-27l-5.85,14.35H504Z" transform="translate(-332.73 -288.88)"></path><polygon class="cls-2" points="245.27 82.48 258.24 82.48 288.2 121.85 288.2 82.48 302.08 82.48 302.08 146.42 290.11 146.42 259.15 105.77 259.15 146.42 245.27 146.42 245.27 82.48"></polygon><path class="cls-2" d="M647.32,403.51v-.18c0-18.18,14.16-33.07,33.53-33.07,11.5,0,18.45,3.1,25.11,8.77l-8.86,10.68c-4.93-4.1-9.31-6.48-16.71-6.48-10.23,0-18.36,9-18.36,19.91v.19c0,11.69,8,20.27,19.36,20.27a22.52,22.52,0,0,0,13.25-3.83v-9.14H680.48V398.48h27.77v27.77a41.52,41.52,0,0,1-27.31,10.14c-19.92,0-33.62-14-33.62-32.88" transform="translate(-332.73 -288.88)"></path><path class="cls-2" d="M720.76,407.89V371.36h14.06v36.17c0,10.41,5.21,15.8,13.8,15.8s13.79-5.21,13.79-15.35V371.36h14.06v36.08c0,19.36-10.87,28.86-28,28.86s-27.67-9.59-27.67-28.41" transform="translate(-332.73 -288.88)"></path><path class="cls-2" d="M786.43,426l8.31-10c5.75,4.75,11.78,7.77,19.09,7.77,5.75,0,9.22-2.29,9.22-6v-.19c0-3.56-2.19-5.38-12.88-8.12C797.29,406.16,789,402.59,789,389.9v-.18c0-11.6,9.32-19.28,22.38-19.28a37.06,37.06,0,0,1,23.75,8.13l-7.31,10.6c-5.66-3.93-11.23-6.3-16.62-6.3s-8.22,2.46-8.22,5.57v.18c0,4.2,2.74,5.57,13.79,8.4,13,3.38,20.28,8,20.28,19.18v.19c0,12.69-9.68,19.82-23.48,19.82A40.67,40.67,0,0,1,786.43,426" transform="translate(-332.73 -288.88)"></path><polygon class="cls-2" points="528.22 95.45 508.77 95.45 508.77 82.48 561.74 82.48 561.74 95.45 542.29 95.45 542.29 146.42 528.22 146.42 528.22 95.45"></polygon><path class="cls-2" d="M931.92,408.53l-8.49-20.73-8.5,20.73ZM917.13,370.9h13l27.4,64.4H942.79L937,421h-27l-5.84,14.35H889.73Z" transform="translate(-332.73 -288.88)"></path></svg> 