<?xml version="1.0" encoding="UTF-8"?> <svg xmlns="http://www.w3.org/2000/svg" width="200" height="25" viewBox="0 0 200 25" fill="none"><path d="M27.1177 14.5854V5.52844H29.6217V14.4789C29.6217 17.4091 31.0069 19.0074 33.1912 19.0074C35.4289 19.0074 36.7608 17.5157 36.7608 14.6387V5.58172H39.2648V14.5322C39.2648 19.2205 36.8673 21.618 33.138 21.618C29.4619 21.5114 27.1177 19.1672 27.1177 14.5854Z" fill="#155AC4"></path><path d="M45.7645 19.0074L47.2563 17.0362C48.6415 18.3681 49.9734 19.0607 51.7315 19.0607C53.2765 19.0607 54.2355 18.2616 54.2355 17.0895V17.0362C54.2355 15.9174 53.6495 15.2781 51.0389 14.6388C48.0022 13.8396 46.2973 12.8273 46.2973 9.95041V9.89715C46.2973 7.18005 48.3218 5.31537 51.1455 5.31537C53.2233 5.31537 54.8748 6.00795 56.3133 7.28659L54.9814 9.36439C53.7027 8.29886 52.4241 7.76609 51.1455 7.76609C49.707 7.76609 48.8546 8.61852 48.8546 9.63077V9.68403C48.8546 10.9094 49.4939 11.4422 52.211 12.188C55.1945 12.9872 56.7928 14.2125 56.7928 16.8231V16.8764C56.7928 19.8066 54.715 21.5647 51.7315 21.5647C49.5472 21.5114 47.4694 20.659 45.7645 19.0074Z" fill="#155AC4"></path><path d="M63.772 5.52844H66.276V11.229C66.276 11.7085 66.649 12.0814 67.1284 12.0814H72.243C72.7225 12.0814 73.0954 11.7085 73.0954 11.229V5.52844H75.5994V21.2983H73.0954V15.4912C73.0954 15.0117 72.7225 14.6387 72.243 14.6387H67.1284C66.649 14.6387 66.276 15.0117 66.276 15.4912V21.2983H63.772V5.52844Z" fill="#155AC4"></path><path d="M85.8817 8.08571H82.2589V5.52844H93.7666V8.08571H90.1438C89.6643 8.08571 89.2914 8.45865 89.2914 8.93814V21.2983H86.7874V8.93814C86.7341 8.45865 86.3612 8.08571 85.8817 8.08571Z" fill="#213950"></path><path d="M103.676 5.42194H105.967L112.2 21.2983H109.59L108.364 18.0485C108.258 17.7288 107.885 17.4624 107.565 17.4624H102.078C101.705 17.4624 101.385 17.6755 101.279 18.0485L100.053 21.2983H97.496L103.676 5.42194ZM107.086 14.6921L105.008 9.36441C104.901 9.1513 104.635 9.1513 104.528 9.36441L102.451 14.6921C102.397 14.8519 102.504 15.0117 102.664 15.0117H106.819C107.032 15.0117 107.139 14.8519 107.086 14.6921Z" fill="#213950"></path><path d="M118.7 5.52844H121.204V18.7943H128.663V21.2983H118.7V5.52844Z" fill="#213950"></path><path d="M135.322 5.52844H145.871V8.03244H138.466C138.093 8.03244 137.826 8.29882 137.826 8.67175V11.4954C137.826 11.8684 138.093 12.1347 138.466 12.1347H144.912V14.6387H138.412C138.039 14.6387 137.773 14.9051 137.773 15.278V18.2615C137.773 18.6345 138.039 18.9008 138.412 18.9008H145.924V21.4048H135.269V5.52844H135.322Z" fill="#213950"></path><path d="M152.957 5.52844H155.248L162.866 16.4501V5.52844H165.317V21.2983H163.239L155.408 10.0569V21.2983H152.957V5.52844Z" fill="#213950"></path><path d="M176.558 8.08571H172.03V5.52844H183.538V8.08571H179.009V21.2983H176.505V8.08571H176.558Z" fill="#213950"></path><path d="M188.972 19.0074L190.464 17.0362C191.849 18.3681 193.181 19.0607 194.939 19.0607C196.484 19.0607 197.443 18.2616 197.443 17.0895V17.0362C197.443 15.9174 196.857 15.2781 194.246 14.6388C191.209 13.8396 189.505 12.8273 189.505 9.95041V9.89715C189.505 7.18005 191.529 5.31537 194.353 5.31537C196.43 5.31537 198.082 6.00795 199.521 7.28659L198.189 9.36439C196.91 8.29886 195.631 7.76609 194.353 7.76609C192.914 7.76609 192.062 8.61852 192.062 9.63077V9.68403C192.062 10.9094 192.701 11.4422 195.418 12.188C198.402 12.9872 200 14.2125 200 16.8231V16.8764C200 19.8066 197.922 21.5647 194.939 21.5647C192.754 21.5114 190.677 20.659 188.972 19.0074Z" fill="#213950"></path><path fill-rule="evenodd" clip-rule="evenodd" d="M13 4C13 3.44772 13.4542 2.98834 13.9899 3.1229C14.7854 3.32275 15.533 3.76318 16.1404 4.42123C16.999 5.35139 17.5 6.6369 17.5 8C17.5 9.3631 16.999 10.6486 16.1404 11.5788C15.533 12.2368 14.7854 12.6772 13.9899 12.8771C13.4542 13.0117 13 12.5523 13 12V4ZM13.9967 15.9292C13.45 16.0073 13 16.4477 13 17V25L8.99998 22V5C8.99998 4.44772 8.55227 4 7.99998 4L2.99998 4L-1.52588e-05 0H13C15.0296 0 16.9493 0.874543 18.3448 2.38639C19.7367 3.89419 20.5 5.91529 20.5 8C20.5 10.0847 19.7367 12.1058 18.3448 13.6136C17.1802 14.8753 15.6506 15.6931 13.9967 15.9292Z" fill="#155AC4"></path></svg> 