<?xml version="1.0" encoding="UTF-8"?> <svg xmlns="http://www.w3.org/2000/svg" xmlns:xlink="http://www.w3.org/1999/xlink" width="1320px" height="440px" viewBox="0 0 132 44" version="1.1"><!-- Generator: sketchtool 52.3 (67297) - http://www.bohemiancoding.com/sketch --><title>617C2257-D06E-42D4-9706-D37F44052D04</title><desc>Created with sketchtool.</desc><g id="ok" stroke="none" stroke-width="1" fill="none" fill-rule="evenodd"><g id="DA_Home" transform="translate(-80.000000, -29.000000)" fill="#FF5A5A"><g id="Group-11" transform="translate(80.000000, 29.000000)"><path d="M62.4247982,23.4464005 L60.2215984,23.4464005 L60.2215984,21.7616006 L62.4247982,21.7616006 L62.4247982,19.4720008 C62.4247982,18.1039941 62.6875955,17.0852044 63.2131981,16.4156011 C63.7388007,15.7459978 64.6423916,15.4112012 65.9239979,15.4112012 C66.1399989,15.4112012 66.3667967,15.4184011 66.6043978,15.4328012 C66.841999,15.4472013 67.0975964,15.4904008 67.3711978,15.5624012 L67.1551978,17.290401 C66.9679969,17.2184007 66.7879987,17.1680012 66.6151978,17.139201 C66.442397,17.1104009 66.2551989,17.096001 66.0535979,17.096001 C65.6935961,17.096001 65.405599,17.1500005 65.1895979,17.258001 C64.9735969,17.3660016 64.8043986,17.5208 64.681998,17.722401 C64.5595974,17.924002 64.4803982,18.1651995 64.444398,18.4460009 C64.4083978,18.7268023 64.390398,19.0471991 64.390398,19.4072008 L64.390398,21.7616006 L66.7015978,21.7616006 L66.7015978,23.4464005 L64.368798,23.4464005 L64.368798,31.9999998 L62.4247982,31.9999998 L62.4247982,23.4464005 Z M69.0127976,15.6704012 L70.9567975,15.6704012 L70.9567975,31.9999998 L69.0127976,31.9999998 L69.0127976,15.6704012 Z M74.1967972,21.7616006 L76.140797,21.7616006 L76.140797,31.9999998 L74.1967972,31.9999998 L74.1967972,21.7616006 Z M73.7431972,18.089601 C73.7431972,17.700799 73.8835958,17.3660024 74.1643972,17.085201 C74.4451986,16.8043997 74.7799952,16.6640011 75.1687971,16.6640011 C75.557599,16.6640011 75.8923956,16.8043997 76.173197,17.085201 C76.4539984,17.3660024 76.594397,17.700799 76.594397,18.089601 C76.594397,18.4784029 76.4539984,18.8131995 76.173197,19.0940009 C75.8923956,19.3748023 75.557599,19.5152008 75.1687971,19.5152008 C74.7799952,19.5152008 74.4451986,19.3748023 74.1643972,19.0940009 C73.8835958,18.8131995 73.7431972,18.4784029 73.7431972,18.089601 Z M84.7159963,23.4464005 L81.9295965,23.4464005 L81.9295965,28.0904001 C81.9295965,28.3784015 81.9367964,28.6627986 81.9511965,28.9436 C81.9655966,29.2244014 82.019596,29.4763989 82.1131965,29.6996 C82.206797,29.9228011 82.3507955,30.1027992 82.5451965,30.2395999 C82.7395974,30.3764006 83.0239945,30.4447999 83.3983964,30.4447999 C83.6287975,30.4447999 83.8663951,30.4232001 84.1111963,30.3799999 C84.3559975,30.3367997 84.5791953,30.2576005 84.7807963,30.1423999 L84.7807963,31.9135998 C84.5503951,32.0432004 84.2515981,32.1331995 83.8843963,32.1835997 C83.5171945,32.234 83.2327974,32.2591997 83.0311964,32.2591997 C82.2823927,32.2591997 81.7027986,32.1548008 81.2923966,31.9459998 C80.8819945,31.7371987 80.5795976,31.4672015 80.3851966,31.1359998 C80.1907957,30.8047982 80.0755968,30.4340019 80.0395967,30.0235999 C80.0035965,29.6131979 79.9855967,29.1992021 79.9855967,28.7816 L79.9855967,23.4464005 L77.7391969,23.4464005 L77.7391969,21.7616006 L79.9855967,21.7616006 L79.9855967,18.8888009 L81.9295965,18.8888009 L81.9295965,21.7616006 L84.7159963,21.7616006 L84.7159963,23.4464005 Z M97.4815952,31.9999998 L95.5375953,31.9999998 L95.5375953,30.5311999 L95.4943953,30.5311999 C95.1199935,31.0784026 94.6051987,31.5031983 93.9499955,31.8055998 C93.2947923,32.1080013 92.621599,32.2591997 91.9303956,32.2591997 C91.1383918,32.2591997 90.421999,32.1224011 89.7811958,31.8487998 C89.1403927,31.5751984 88.5931982,31.1936023 88.139596,30.7039999 C87.6859937,30.2143975 87.3367973,29.6456032 87.0919961,28.9976 C86.8471949,28.3495968 86.7247961,27.644004 86.7247961,26.8808002 C86.7247961,26.1175965 86.8471949,25.4084036 87.0919961,24.7532004 C87.3367973,24.0979972 87.6859937,23.5292029 88.139596,23.0468005 C88.5931982,22.5643982 89.1403927,22.186402 89.7811958,21.9128006 C90.421999,21.6391993 91.1383918,21.5024007 91.9303956,21.5024007 C92.6647993,21.5024007 93.3559923,21.6571991 94.0039955,21.9668006 C94.6519987,22.2764021 95.1487936,22.6975979 95.4943953,23.2304005 L95.5375953,23.2304005 L95.5375953,15.6704012 L97.4815952,15.6704012 L97.4815952,31.9999998 Z M92.1679956,30.4447999 C92.6863982,30.4447999 93.1543935,30.3548008 93.5719955,30.1747999 C93.9895976,29.994799 94.342394,29.7500015 94.6303954,29.4404 C94.9183968,29.1307985 95.1415946,28.7564022 95.2999954,28.3172001 C95.4583961,27.8779979 95.5375953,27.3992027 95.5375953,26.8808002 C95.5375953,26.3623977 95.4583961,25.8836025 95.2999954,25.4444003 C95.1415946,25.0051982 94.9183968,24.6308019 94.6303954,24.3212004 C94.342394,24.0115989 93.9895976,23.7668014 93.5719955,23.5868005 C93.1543935,23.4067996 92.6863982,23.3168005 92.1679956,23.3168005 C91.6495931,23.3168005 91.1815978,23.4067996 90.7639957,23.5868005 C90.3463937,23.7668014 89.9935973,24.0115989 89.7055958,24.3212004 C89.4175944,24.6308019 89.1943967,25.0051982 89.0359959,25.4444003 C88.8775951,25.8836025 88.7983959,26.3623977 88.7983959,26.8808002 C88.7983959,27.3992027 88.8775951,27.8779979 89.0359959,28.3172001 C89.1943967,28.7564022 89.4175944,29.1307985 89.7055958,29.4404 C89.9935973,29.7500015 90.3463937,29.994799 90.7639957,30.1747999 C91.1815978,30.3548008 91.6495931,30.4447999 92.1679956,30.4447999 Z M101.887995,27.5936001 C101.887995,28.0400023 101.985194,28.4467982 102.179595,28.814 C102.373996,29.1812018 102.629593,29.4943987 102.946395,29.7536 C103.263196,30.0128012 103.630393,30.2143992 104.047995,30.3583999 C104.465597,30.5024006 104.897592,30.5743999 105.343994,30.5743999 C105.948797,30.5743999 106.474392,30.4340013 106.920794,30.1531999 C107.367197,29.8723985 107.777592,29.5016023 108.151994,29.0408 L109.620794,30.1639999 C108.540789,31.5608068 107.028804,32.2591997 105.084795,32.2591997 C104.278391,32.2591997 103.547598,32.1224011 102.892395,31.8487998 C102.237191,31.5751984 101.682797,31.1972022 101.229195,30.7147999 C100.775593,30.2323975 100.426396,29.6636032 100.181595,29.0084 C99.9367937,28.3531968 99.814395,27.644004 99.814395,26.8808002 C99.814395,26.1175965 99.9475936,25.4084036 100.213995,24.7532004 C100.480396,24.0979972 100.847593,23.5292029 101.315595,23.0468005 C101.783597,22.5643982 102.341592,22.186402 102.989595,21.9128006 C103.637598,21.6391993 104.343191,21.5024007 105.106395,21.5024007 C106.013599,21.5024007 106.780391,21.6607991 107.406794,21.9776006 C108.033197,22.2944022 108.547992,22.708398 108.951194,23.2196005 C109.354396,23.730803 109.645993,24.3067972 109.825994,24.9476004 C110.005995,25.5884035 110.095994,26.2399969 110.095994,26.9024002 L110.095994,27.5936001 L101.887995,27.5936001 Z M108.022394,26.0384003 C108.007994,25.6063982 107.939595,25.2104021 107.817194,24.8504004 C107.694794,24.4903986 107.511196,24.1772018 107.266394,23.9108005 C107.021593,23.6443991 106.715596,23.4356013 106.348394,23.2844005 C105.981193,23.1331998 105.552797,23.0576005 105.063195,23.0576005 C104.587992,23.0576005 104.152397,23.1475996 103.756395,23.3276005 C103.360393,23.5076014 103.025596,23.741599 102.751995,24.0296004 C102.478393,24.3176019 102.265996,24.6379986 102.114795,24.9908004 C101.963594,25.3436021 101.887995,25.6927986 101.887995,26.0384003 L108.022394,26.0384003 Z M117.871993,24.3320004 C117.641592,24.043999 117.357195,23.8028014 117.018793,23.6084005 C116.680392,23.4139995 116.266396,23.3168005 115.776794,23.3168005 C115.315991,23.3168005 114.916395,23.4139995 114.577994,23.6084005 C114.239592,23.8028014 114.070394,24.0871986 114.070394,24.4616004 C114.070394,24.7640019 114.167593,25.0087994 114.361994,25.1960003 C114.556395,25.3832013 114.786792,25.5343997 115.053194,25.6496003 C115.319595,25.7648009 115.603992,25.8512 115.906394,25.9088003 C116.208795,25.9664006 116.467992,26.0168001 116.683994,26.0600003 C117.101596,26.1608008 117.493992,26.2831995 117.861193,26.4272002 C118.228395,26.5712009 118.545192,26.7583991 118.811593,26.9888002 C119.077995,27.2192013 119.286793,27.4999985 119.437993,27.8312001 C119.589194,28.1624017 119.664793,28.5655977 119.664793,29.0408 C119.664793,29.6168028 119.542394,30.1099979 119.297593,30.5203999 C119.052792,30.9308019 118.735995,31.2655985 118.347193,31.5247998 C117.958391,31.7840011 117.515596,31.9711992 117.018793,32.0863998 C116.521991,32.2016003 116.021596,32.2591997 115.517594,32.2591997 C114.667989,32.2591997 113.922797,32.129601 113.281994,31.8703998 C112.641191,31.6111985 112.068796,31.1360033 111.564794,30.4447999 L113.033594,29.2352 C113.350395,29.5520016 113.703192,29.8327987 114.091994,30.0775999 C114.480796,30.3224011 114.955991,30.4447999 115.517594,30.4447999 C115.762395,30.4447999 116.010792,30.4196001 116.262794,30.3691999 C116.514795,30.3187997 116.737993,30.2396005 116.932393,30.1315999 C117.126794,30.0235994 117.285193,29.8868008 117.407593,29.7212 C117.529994,29.5555991 117.591193,29.3648011 117.591193,29.1488 C117.591193,28.8607986 117.501194,28.623201 117.321193,28.4360001 C117.141193,28.2487991 116.925195,28.1012006 116.673194,27.9932001 C116.421192,27.8851996 116.154795,27.7988004 115.873994,27.7340001 C115.593192,27.6691998 115.344795,27.6152004 115.128794,27.5720001 C114.711192,27.4711996 114.315196,27.3560008 113.940794,27.2264002 C113.566392,27.0967995 113.235195,26.9240013 112.947194,26.7080002 C112.659192,26.4919992 112.428795,26.2184019 112.255994,25.8872003 C112.083193,25.5559987 111.996794,25.1456028 111.996794,24.6560004 C111.996794,24.1231978 112.108393,23.6588025 112.331594,23.2628005 C112.554795,22.8667986 112.849992,22.5392019 113.217194,22.2800006 C113.584396,22.0207993 114.001991,21.8264013 114.469994,21.6968006 C114.937996,21.5672 115.409591,21.5024007 115.884794,21.5024007 C116.575997,21.5024007 117.23839,21.6319994 117.871993,21.8912006 C118.505597,22.1504019 119.009591,22.5823975 119.383993,23.1872005 L117.871993,24.3320004 Z M122.019193,15.6704012 L123.963193,15.6704012 L123.963193,26.2112003 L128.369593,21.7832006 L131.069592,21.7832006 L126.295993,26.4272002 L131.479992,31.9999998 L128.715192,31.9999998 L123.963193,26.6864002 L123.963193,31.9999998 L122.019193,31.9999998 L122.019193,15.6704012 Z M30.2380248,2.36418649 C30.9588575,1.26340685 32.7227177,0.460000046 34.3114635,0.460000046 L35.7328258,0.460000046 C36.0310595,0.460000046 36.2728257,0.701766261 36.2728257,1 L36.2728257,1.9133935 C36.2728257,2.21162724 36.0310595,2.45339345 35.7328258,2.45339345 L34.3114635,2.45339345 C33.3826965,2.45339345 32.2544546,2.95075124 31.9276197,3.4498524 L27.5831757,10.0319503 C27.4502108,10.2334001 27.2162753,10.309166 27.0071972,10.2599562 C26.8767524,10.231184 26.7553391,10.1540063 26.6732223,10.0286064 L22.3641284,3.44821387 C22.0383707,2.95075123 20.9101288,2.45339345 19.9813617,2.45339345 L18.5599996,2.45339345 C18.2617658,2.45339345 18.0199996,2.21162724 18.0199996,1.9133935 L18.0199996,1 C18.0199996,0.701766261 18.2617658,0.460000046 18.5599996,0.460000046 L19.9813617,0.460000046 C21.5701075,0.460000046 23.3339677,1.26340683 24.0585897,2.37005543 L27.1162327,7.1738321 L30.2380248,2.36418649 Z M27.8981208,20.1926241 L27.0685492,21.1877961 L26.2389776,20.1926241 C25.7746257,19.6355776 25.3047907,19.094467 24.8304534,18.5709741 C20.0260833,13.2687265 15.5487085,10.576776 11.5542343,10.6866422 C8.82749667,10.7616399 6.34582483,12.1733574 4.16639039,14.9454696 L4.15120572,14.9625499 C3.04843197,16.9239508 2.81116072,18.7535309 3.37466237,20.4587145 C3.80910139,21.7733485 4.70606546,22.9907666 6.04214724,24.1021152 C6.653503,24.610639 7.3267017,25.0710266 8.03979852,25.4749188 L9.53097001,26.3195062 L8.1256327,27.3002954 C7.40612891,27.8024393 6.72659094,28.3515919 6.11040429,28.9353404 C4.70115356,30.2704036 3.78651549,31.6257311 3.39244717,32.982899 C2.88172876,34.7418091 3.27043116,36.4533918 4.62985632,38.1292951 C7.08829809,41.1600699 10.0053921,42.2206576 13.409936,41.4302601 C16.7730871,40.6494725 20.5126196,38.1078152 24.5160635,33.9459564 C25.1016962,33.3371504 25.6825169,32.7041191 26.2567326,32.0496674 L27.0685492,31.1244145 L27.8803658,32.0496674 C28.4545815,32.7041191 29.0354022,33.3371504 29.6210349,33.9459564 C33.6244788,38.1078152 37.3640113,40.6494725 40.7271624,41.4302601 C44.1317063,42.2206576 47.0488003,41.1600699 49.5072421,38.129295 C50.8666672,36.4533918 51.2553696,34.7418091 50.7446512,32.982899 C50.3505829,31.6257311 49.4359448,30.2704036 48.0266942,28.9353405 C47.4105074,28.3515919 46.7309695,27.8024393 46.0114657,27.3002954 L44.6061284,26.3195062 L46.0972999,25.4749188 C46.8103967,25.0710266 47.4835954,24.610639 48.0949512,24.1021151 C49.4310329,22.9907666 50.327997,21.7733485 50.762436,20.4587144 C51.3259377,18.7535309 51.0886664,16.9239508 50.0290162,15.0328274 L50.0193656,15.0126327 C47.7912735,12.1733574 45.3096017,10.7616399 42.5828641,10.6866422 C38.5883899,10.576776 34.1110151,13.2687265 29.306645,18.5709741 C28.8323077,19.094467 28.3624727,19.6355776 27.8981208,20.1926241 Z M27.7059944,17.1206235 C32.8919547,11.3972415 37.882836,8.39655334 42.6422515,8.52745893 C46.0553517,8.62133472 49.1156891,10.3622305 51.7672749,13.7463255 L51.8687066,13.9039607 C53.257656,16.3743557 53.5759601,18.8287734 52.8133504,21.1364675 C52.2424066,22.8641717 51.1050038,24.4079291 49.4762431,25.7627271 C49.1696662,26.0177368 48.8508396,26.2616252 48.5216192,26.4938281 C48.8640833,26.7752948 49.1950413,27.0667991 49.5122128,27.3672736 C51.1801699,28.9474241 52.3069145,30.6170549 52.8189777,32.3805961 C53.5326995,34.8386483 52.9785917,37.2785645 51.1847481,39.4900201 C48.2151563,43.1509423 44.4632063,44.5150643 40.238689,43.5343022 C36.3967099,42.6423501 32.3313364,39.8792276 28.0643452,35.443393 C27.7305932,35.0964346 27.3985678,34.7421515 27.0685492,34.3810058 C26.7385306,34.7421515 26.4065051,35.0964346 26.0727532,35.443393 C21.8057619,39.8792276 17.7403885,42.6423501 13.8984095,43.5343022 C9.67389207,44.5150643 5.92194208,43.1509423 2.95235029,39.4900202 C1.1585067,37.2785645 0.604398885,34.8386483 1.3181207,32.380596 C1.83018384,30.6170549 2.95692846,28.9474241 4.62488571,27.3672735 C4.94205711,27.0667991 5.27301513,26.7752948 5.61547916,26.4938281 C5.28625882,26.2616252 4.9674322,26.0177368 4.6608554,25.7627271 C3.0320946,24.4079291 1.89469173,22.8641717 1.32374797,21.1364676 C0.561138292,18.8287734 0.879442345,16.3743557 2.31151533,13.8336832 L2.41848112,13.6791624 C5.02140933,10.3622305 8.08174671,8.62133472 11.4948469,8.52745893 C16.2542624,8.39655334 21.2451437,11.3972415 26.431104,17.1206235 C26.6445873,17.3562302 26.8570937,17.5951418 27.0685492,17.8372231 C27.2800046,17.5951418 27.4925111,17.3562302 27.7059944,17.1206235 Z" id="logo-Flitdesk"></path></g></g></g></svg> 